<svg id="logo.svg" xmlns="http://www.w3.org/2000/svg" width="100" height="100" viewBox="0 0 100 100">
	<defs>
	<linearGradient id="gradient" gradientUnits="userSpaceOnUse" x1="0" x2="100" y1="100" y2="0">
		<stop offset="0%" stop-color="#0a00b2"/>
		<stop offset="50%" stop-color="#ff0000"/>
		<stop offset="100%" stop-color="#fffc00"/>
	</linearGradient>
	<style>
		.petal {
			opacity: 0.65;
		}
		.petals {
			fill: url(#gradient);
		}
	</style>
	</defs>
	<g id="petals" class="petals">
		<path class="petal" d="M35.922,12.956a16.3,16.3,0,0,0,2.344,10.436,10.462,10.462,0,0,0,5.924,4.351,2.587,2.587,0,0,0,2.144-.521,11.022,11.022,0,0,0,3.635-9.771c-0.831-7.014-5.024-11.8-10.361-16.357A30.253,30.253,0,0,0,35.922,12.956Z"/>
		<path class="petal" d="M28.485,16.676A16.327,16.327,0,0,0,32.959,26.4a10.491,10.491,0,0,0,6.7,3.031,2.581,2.581,0,0,0,1.988-.953,11.006,11.006,0,0,0,1.513-10.309c-2.279-6.689-7.38-10.5-13.554-13.857A30.215,30.215,0,0,0,28.485,16.676Z"/>
		<path class="petal" d="M21.988,21.853A16.374,16.374,0,0,0,28.4,30.439a10.512,10.512,0,0,0,7.191,1.579,2.574,2.574,0,0,0,1.745-1.343,11,11,0,0,0-.675-10.4C33.031,14.206,27.245,11.533,20.5,9.526A30.218,30.218,0,0,0,21.988,21.853Z"/>
		<path class="petal" d="M16.716,28.26a16.426,16.426,0,0,0,8.063,7.073,10.519,10.519,0,0,0,7.364.057,2.566,2.566,0,0,0,1.426-1.675,11.014,11.014,0,0,0-2.833-10.03C25.919,18.5,19.7,17.079,12.687,16.509A30.261,30.261,0,0,0,16.716,28.26Z"/>
		<path class="petal" d="M12.9,35.618a16.476,16.476,0,0,0,9.366,5.251A10.512,10.512,0,0,0,29.478,39.4a2.559,2.559,0,0,0,1.045-1.933,11.038,11.038,0,0,0-4.868-9.225c-5.8-4.079-12.176-4.18-19.154-3.286A30.339,30.339,0,0,0,12.9,35.618Z"/>
		<path class="petal" d="M10.7,43.6a16.515,16.515,0,0,0,10.258,3.2,10.493,10.493,0,0,0,6.751-2.927,2.553,2.553,0,0,0,.618-2.107,11.068,11.068,0,0,0-6.69-8.017c-6.522-2.791-12.783-1.571-19.422.746A30.434,30.434,0,0,0,10.7,43.6Z"/>
		<path class="petal" d="M10.222,51.871a16.535,16.535,0,0,0,10.7,1.008,10.464,10.464,0,0,0,5.991-4.259,2.55,2.55,0,0,0,.164-2.189,11.1,11.1,0,0,0-8.219-6.458C11.9,38.591,6.028,41.08.019,44.719A30.534,30.534,0,0,0,10.222,51.871Z"/>
		<path class="petal" d="M11.481,60.056a16.533,16.533,0,0,0,10.68-1.228,10.431,10.431,0,0,0,4.97-5.405,2.551,2.551,0,0,0-.3-2.175,11.133,11.133,0,0,0-9.39-4.617c-7.1.089-12.32,3.737-17.438,8.539A30.618,30.618,0,0,0,11.481,60.056Z"/>
		<path class="petal" d="M14.423,67.8a16.51,16.51,0,0,0,10.19-3.41,10.4,10.4,0,0,0,3.732-6.315,2.555,2.555,0,0,0-.745-2.066,11.155,11.155,0,0,0-10.15-2.575c-6.926,1.555-11.27,6.2-15.272,11.959A30.673,30.673,0,0,0,14.423,67.8Z"/>
		<path class="petal" d="M18.92,74.769a16.471,16.471,0,0,0,9.254-5.442,10.374,10.374,0,0,0,2.33-6.948,2.561,2.561,0,0,0-1.161-1.867,11.166,11.166,0,0,0-10.466-.419c-6.45,2.953-9.727,8.4-12.438,14.856A30.693,30.693,0,0,0,18.92,74.769Z"/>
		<path class="petal" d="M24.775,80.654a16.42,16.42,0,0,0,7.914-7.237,10.36,10.36,0,0,0,.827-7.279,2.569,2.569,0,0,0-1.525-1.586,11.162,11.162,0,0,0-10.325,1.754c-5.691,4.222-7.759,10.226-9.061,17.1A30.668,30.668,0,0,0,24.775,80.654Z"/>
		<path class="petal" d="M31.733,85.2a16.368,16.368,0,0,0,6.229-8.716,10.36,10.36,0,0,0-.713-7.29,2.576,2.576,0,0,0-1.824-1.236,11.144,11.144,0,0,0-9.733,3.851c-4.684,5.307-5.452,11.607-5.288,18.6A30.607,30.607,0,0,0,31.733,85.2Z"/>
		<path class="petal" d="M39.488,88.208a16.323,16.323,0,0,0,4.271-9.814,10.373,10.373,0,0,0-2.221-6.984,2.583,2.583,0,0,0-2.042-.832,11.116,11.116,0,0,0-8.715,5.78C27.309,82.519,27.874,88.84,29.5,95.65A30.518,30.518,0,0,0,39.488,88.208Z"/>
		<path class="petal" d="M47.7,89.546a16.293,16.293,0,0,0,2.126-10.482A10.4,10.4,0,0,0,46.2,72.692a2.588,2.588,0,0,0-2.171-.391,11.082,11.082,0,0,0-7.316,7.456c-2.109,6.743-.234,12.81,2.776,19.135A30.421,30.421,0,0,0,47.7,89.546Z"/>
		<path class="petal" d="M56.018,89.156a16.283,16.283,0,0,0-.111-10.693,10.429,10.429,0,0,0-4.885-5.481,2.589,2.589,0,0,0-2.206.067,11.049,11.049,0,0,0-5.6,8.806C42.565,88.887,45.667,94.432,49.934,100A30.324,30.324,0,0,0,56.018,89.156Z"/>
		<path class="petal" d="M64.07,87.055a16.3,16.3,0,0,0-2.344-10.436A10.462,10.462,0,0,0,55.8,72.268a2.587,2.587,0,0,0-2.144.521,11.022,11.022,0,0,0-3.635,9.771c0.831,7.014,5.024,11.8,10.361,16.357A30.254,30.254,0,0,0,64.07,87.055Z"/>
		<path class="petal" d="M71.507,83.335a16.327,16.327,0,0,0-4.474-9.723,10.491,10.491,0,0,0-6.7-3.031,2.581,2.581,0,0,0-1.988.953,11.006,11.006,0,0,0-1.513,10.309c2.279,6.689,7.38,10.5,13.554,13.857A30.215,30.215,0,0,0,71.507,83.335Z"/>
		<path class="petal" d="M78,78.158a16.374,16.374,0,0,0-6.409-8.586A10.512,10.512,0,0,0,64.4,67.994a2.574,2.574,0,0,0-1.745,1.343,11,11,0,0,0,.675,10.4c3.627,6.071,9.414,8.745,16.154,10.752A30.218,30.218,0,0,0,78,78.158Z"/>
		<path class="petal" d="M83.276,71.751a16.426,16.426,0,0,0-8.064-7.073,10.519,10.519,0,0,0-7.364-.057A2.566,2.566,0,0,0,66.423,66.3a11.014,11.014,0,0,0,2.833,10.03C74.073,81.515,80.292,82.933,87.3,83.5A30.263,30.263,0,0,0,83.276,71.751Z"/>
		<path class="petal" d="M87.094,64.393a16.476,16.476,0,0,0-9.366-5.251,10.512,10.512,0,0,0-7.215,1.467,2.559,2.559,0,0,0-1.045,1.933,11.037,11.037,0,0,0,4.868,9.225c5.8,4.079,12.176,4.18,19.154,3.287A30.338,30.338,0,0,0,87.094,64.393Z"/>
		<path class="petal" d="M89.291,56.407a16.515,16.515,0,0,0-10.258-3.2,10.493,10.493,0,0,0-6.751,2.927,2.553,2.553,0,0,0-.618,2.107,11.068,11.068,0,0,0,6.69,8.017c6.522,2.791,12.783,1.571,19.422-.746A30.435,30.435,0,0,0,89.291,56.407Z"/>
		<path class="petal" d="M89.77,48.14a16.534,16.534,0,0,0-10.7-1.008,10.465,10.465,0,0,0-5.991,4.259,2.551,2.551,0,0,0-.164,2.189,11.1,11.1,0,0,0,8.219,6.458c6.963,1.382,12.832-1.107,18.842-4.747A30.533,30.533,0,0,0,89.77,48.14Z"/>
		<path class="petal" d="M88.511,39.956a16.533,16.533,0,0,0-10.68,1.228,10.431,10.431,0,0,0-4.97,5.405,2.551,2.551,0,0,0,.3,2.175,11.133,11.133,0,0,0,9.39,4.617c7.1-.089,12.32-3.737,17.438-8.539A30.618,30.618,0,0,0,88.511,39.956Z"/>
		<path class="petal" d="M85.569,32.21a16.51,16.51,0,0,0-10.19,3.41,10.4,10.4,0,0,0-3.732,6.315A2.555,2.555,0,0,0,72.393,44a11.155,11.155,0,0,0,10.15,2.574c6.926-1.555,11.27-6.2,15.272-11.959A30.673,30.673,0,0,0,85.569,32.21Z"/>
		<path class="petal" d="M81.072,25.242a16.471,16.471,0,0,0-9.254,5.442,10.374,10.374,0,0,0-2.33,6.948A2.561,2.561,0,0,0,70.648,39.5a11.166,11.166,0,0,0,10.466.419c6.45-2.953,9.727-8.4,12.438-14.856A30.7,30.7,0,0,0,81.072,25.242Z"/>
		<path class="petal" d="M75.217,19.357A16.42,16.42,0,0,0,67.3,26.594a10.36,10.36,0,0,0-.827,7.279A2.568,2.568,0,0,0,68,35.459,11.162,11.162,0,0,0,78.326,33.7c5.691-4.223,7.759-10.226,9.061-17.1A30.668,30.668,0,0,0,75.217,19.357Z"/>
		<path class="petal" d="M68.259,14.811a16.368,16.368,0,0,0-6.229,8.716,10.36,10.36,0,0,0,.713,7.29,2.576,2.576,0,0,0,1.824,1.236A11.144,11.144,0,0,0,74.3,28.2c4.684-5.307,5.452-11.607,5.288-18.6A30.608,30.608,0,0,0,68.259,14.811Z"/>
		<path class="petal" d="M60.5,11.8a16.324,16.324,0,0,0-4.271,9.814A10.374,10.374,0,0,0,58.454,28.6a2.583,2.583,0,0,0,2.042.832,11.115,11.115,0,0,0,8.715-5.78c3.473-6.16,2.907-12.481,1.284-19.291A30.519,30.519,0,0,0,60.5,11.8Z"/>
		<path class="petal" d="M52.288,10.465a16.294,16.294,0,0,0-2.126,10.482,10.4,10.4,0,0,0,3.632,6.372,2.588,2.588,0,0,0,2.171.391,11.082,11.082,0,0,0,7.316-7.456c2.109-6.744.234-12.809-2.776-19.135A30.42,30.42,0,0,0,52.288,10.465Z"/>
		<path class="petal" d="M43.973,10.855a16.283,16.283,0,0,0,.111,10.693,10.429,10.429,0,0,0,4.885,5.482,2.589,2.589,0,0,0,2.206-.066,11.049,11.049,0,0,0,5.6-8.806C57.427,11.125,54.325,5.579,50.058.014A30.324,30.324,0,0,0,43.973,10.855Z"/>
	</g>
</svg>
