<svg xmlns="http://www.w3.org/2000/svg" viewBox="0 0 17.01 14.258" enable-background="new 0 0 17.01 14.258"><style type="text/css">.st0{fill:#004166;}</style><path class="st0" d="M14.009 8.551l.01-.019.005-.023.003-.014-.001-.006-.004-.022-.007-.021-.002-.006-4.629-8.382-.006-.006-.009-.013-.01-.01-.012-.009-.006-.005-.006-.002-.013-.005-.015-.004-.016-.002-.006-.002h-1.642l-.015.003-.021.004-.02.01-.017.012-.015.017-.009.011-4.233 7.425-.002.006-.007.021-.005.022-.001.006v2.86l.003.014.005.023.009.019.012.018.017.015.011.009.008.003.009.004.039.008h1.421l.038-.008.009-.004.031-.021.001-.001.019-.025 1.017-1.844h5.067l1.007 1.844.019.025.002.001.03.02.009.004.038.008h1.125l.04-.008.011-.005.023-.015.01-.009.015-.023.006-.011.002-.004.649-1.869.009-.014zm-.843 1.734h-.859l.582-1.678h.859l-.582 1.678zm-1.996-1.855l-.015-.018-.017-.012-.019-.01-.023-.005-.014-.003h-5.2l-.015.003-.023.005-.019.01-.018.012-.015.018-.01.011-1.017 1.844h-1.161l5.679-9.944 4.44 8.041h-.846l-3.426-6.236-.006-.007-.014-.017-.018-.015-.006-.006-.012-.003-.022-.007-.021-.002-.021.002-.021.007-.012.003-.007.006-.017.014-.014.018-.006.006-2.776 5.035-.002.005-.006.021-.005.023-.001.005.003.014.005.024.009.018.012.018.017.015.012.01.007.003.008.003.039.007h3.788l.039-.008.009-.004.007-.003.011-.009.018-.015.012-.017.01-.019.005-.023.003-.015-.001-.006-.004-.022-.007-.022-.002-.005-1.842-3.315-.037-.038.768-1.392 3.335 6.073-.572 1.649-.936-1.714-.01-.011zm-7.647-.863l4.186-7.342h1.383l-5.569 9.75v-2.408zm3.619-1.127h2.653l.378.682h-3.407l.376-.682zm.124-.225l1.198-2.173 1.206 2.173h-2.404zM1.197 14.258l-.13-.325h-.729l-.13.325h-.208l.588-1.464h.226l.591 1.464h-.208zm-.494-1.276l-.312.788h.621l-.309-.788zM2.123 14.258v-1.464h.959v.162h-.776v.472h.762v.162h-.762v.667h-.183zM4.22 14.258v-1.302h-.463v-.162h1.111v.162h-.465v1.302h-.183zM5.637 14.258v-1.464h.959v.162h-.777v.472h.762v.162h-.762v.505h.777v.162h-.959zM8.261 14.258l-.373-.582h-.292v.582h-.183v-1.464h.588c.268 0 .459.171.459.441 0 .263-.18.408-.38.426l.395.597h-.214zm.011-1.023c0-.165-.119-.279-.292-.279h-.384v.56h.384c.173 0 .292-.117.292-.281zM9.275 14.258v-1.464h.182v1.302h.681v.162h-.863zM10.613 13.527c0-.433.292-.757.727-.757.432 0 .727.325.727.757 0 .433-.294.758-.727.758-.435-.001-.727-.326-.727-.758zm1.264 0c0-.342-.211-.595-.538-.595-.329 0-.538.252-.538.595 0 .34.209.595.538.595.328 0 .538-.255.538-.595zM12.644 13.527c0-.454.336-.757.753-.757.259 0 .439.114.569.275l-.145.09c-.092-.119-.248-.202-.424-.202-.321 0-.564.246-.564.595 0 .347.244.597.564.597.176 0 .321-.086.393-.158v-.299h-.503v-.162h.685v.529c-.136.151-.336.252-.575.252-.417-.001-.753-.306-.753-.76zM14.84 14.258v-1.464h.182v1.464h-.182zM15.699 13.527c0-.45.332-.757.753-.757.259 0 .439.125.555.29l-.154.086c-.083-.123-.235-.213-.402-.213-.321 0-.564.246-.564.595 0 .347.244.595.564.595.167 0 .318-.088.402-.213l.156.086c-.123.167-.299.29-.558.29-.421-.002-.752-.309-.752-.759z"/></svg>